<svg width="78" height="78" viewBox="0 0 78 78" fill="none" xmlns="http://www.w3.org/2000/svg">
<g clip-path="url(#clip0_864_1015)">
<path d="M58.2496 29.3156C58.1232 29.383 58.0113 29.4746 57.9203 29.5853C57.8294 29.6959 57.7611 29.8234 57.7194 29.9605C57.6777 30.0975 57.6634 30.2414 57.6773 30.384C57.6912 30.5266 57.733 30.665 57.8004 30.7914C59.9751 34.7624 60.9869 39.2656 60.72 43.7852C60.3593 48.2463 58.5576 52.469 55.5867 55.8164C51.7522 60.6223 46.4225 64.0099 40.4434 65.4414C34.5199 66.5239 28.4063 65.7274 22.9579 63.1635C19.6869 61.8718 16.7766 59.8086 14.475 57.1495C12.1735 54.4904 10.5489 51.3143 9.7396 47.8918C8.41437 40.8065 9.91114 33.4838 13.9104 27.4868C15.267 25.4161 16.9333 23.5658 18.8513 22.0006C20.7854 20.3696 22.947 19.0294 25.2679 18.0223C28.5273 16.5839 32.0706 15.9037 35.6309 16.0331C39.2204 16.2132 42.7308 17.1536 45.9296 18.7923C46.0406 18.8524 46.1626 18.8894 46.2883 18.901C46.414 18.9125 46.5408 18.8983 46.6608 18.8593C46.7809 18.8203 46.8917 18.7572 46.9867 18.674C47.0816 18.5908 47.1586 18.4891 47.2129 18.3752C47.3281 18.1532 47.3523 17.8951 47.2804 17.6555C47.2085 17.416 47.0463 17.2138 46.8279 17.0918C43.4544 15.2758 39.7392 14.1831 35.9196 13.8835C35.9196 13.2098 36.3046 12.0227 36.5613 10.6752C36.5613 10.226 36.5613 9.74475 36.7859 9.23142C36.8339 8.49429 36.8339 7.7548 36.7859 7.01767C36.7859 4.67559 36.3046 2.526 36.1763 1.46725C36.2034 1.31056 36.196 1.14983 36.1545 0.996307C36.1131 0.842786 36.0385 0.700191 35.9361 0.578513C35.8337 0.456835 35.706 0.359017 35.5618 0.29191C35.4176 0.224804 35.2605 0.190033 35.1015 0.190033C34.9424 0.190033 34.7853 0.224804 34.6412 0.29191C34.497 0.359017 34.3692 0.456835 34.2668 0.578513C34.1644 0.700191 34.0899 0.842786 34.0484 0.996307C34.0069 1.14983 33.9995 1.31056 34.0267 1.46725C34.0267 2.49392 33.4171 4.67559 33.1925 6.92142C33.1444 7.65855 33.1444 8.39804 33.1925 9.13517C33.1594 9.62656 33.1594 10.1196 33.1925 10.611C33.385 12.1189 33.6096 13.306 33.7379 13.9798C30.4398 13.9759 27.1719 14.6077 24.1129 15.8406C21.6072 16.8406 19.2446 18.1675 17.0867 19.7868C14.8602 21.4878 12.9213 23.5351 11.3438 25.8506C9.00482 29.1232 7.33827 32.8273 6.44061 36.7484C5.54294 40.6695 5.43199 44.7297 6.11418 48.6939C7.39297 54.6817 10.9326 59.9453 15.9958 63.3881C15.3364 64.4168 14.7469 65.4887 14.2313 66.5964C13.7871 67.5707 13.4223 68.5793 13.1404 69.6123C12.9656 70.3197 12.837 71.0377 12.7554 71.7618C12.7554 72.7564 12.21 73.5906 12.0175 74.4889C11.921 75.0408 11.921 75.6053 12.0175 76.1573C12.0256 76.444 12.1431 76.7168 12.346 76.9196C12.5488 77.1225 12.8216 77.24 13.1084 77.2481C14.7767 77.4085 15.6429 73.5585 16.0279 72.5318C16.4129 71.5052 16.5413 71.2485 16.5413 70.7673C16.5413 70.286 17.1829 68.8743 17.4396 67.8798C17.6963 66.8852 17.9208 65.9548 18.1133 64.9923C19.1458 65.6074 20.2175 66.154 21.3217 66.6285C27.5631 69.4539 34.545 70.2072 41.2454 68.7781C44.3004 68.0297 47.2072 66.7715 49.8438 65.0564C50.2288 66.4039 50.4854 67.3985 50.9346 68.6498C51.1592 69.2593 51.4479 69.901 51.7688 70.671C54.3996 75.4835 55.6829 77.3443 56.4529 77.3443C56.7422 77.3443 57.0197 77.2294 57.2243 77.0248C57.4288 76.8203 57.5438 76.5428 57.5438 76.2535C57.5045 75.3705 57.309 74.5015 56.9663 73.6868C56.3567 72.0185 55.3621 69.9331 55.1054 69.1952C54.8488 68.4573 54.4638 67.7514 54.1109 67.1739C53.405 65.9227 52.6992 65.0564 51.8009 63.6768C54.0366 61.9653 56.0614 59.9944 57.8325 57.8056C61.0666 53.9413 62.9681 49.1369 63.2546 44.106C63.507 39.0995 62.3273 34.1248 59.8538 29.7648C59.7802 29.6277 59.6798 29.5068 59.5584 29.4095C59.437 29.3122 59.2972 29.2404 59.1474 29.1985C58.9975 29.1565 58.8408 29.1453 58.6865 29.1654C58.5323 29.1855 58.3836 29.2366 58.2496 29.3156Z" fill="#CDD4DD"/>
<path d="M37.4275 27.551C37.5525 27.6515 37.7007 27.7191 37.8585 27.7477C38.0163 27.7764 38.1788 27.7651 38.3312 27.715C38.4835 27.6649 38.621 27.5775 38.731 27.4607C38.841 27.344 38.92 27.2016 38.961 27.0465C39.002 26.8915 39.0035 26.7286 38.9655 26.5728C38.9275 26.4169 38.8512 26.2731 38.7435 26.1542C38.6357 26.0354 38.5 25.9454 38.3486 25.8923C38.1972 25.8393 38.035 25.825 37.8767 25.8506C36.348 25.4587 34.7677 25.3072 33.1925 25.4014C31.6088 25.5035 30.0504 25.8499 28.5725 26.4281C27.0736 27.032 25.6605 27.8302 24.3696 28.8022C23.0429 29.7611 21.8831 30.9317 20.9367 32.2672C19.5394 34.1844 18.5363 36.3597 17.9856 38.6672C17.4349 40.9748 17.3474 43.3686 17.7283 45.7102C18.2626 48.0858 19.3689 50.2951 20.9513 52.1458C22.5337 53.9966 24.5441 55.4328 26.8079 56.3297C30.5203 57.9588 34.6522 58.3743 38.6146 57.5168C42.4456 56.5042 45.8314 54.247 48.2396 51.1002C49.8471 49.1386 50.8897 46.776 51.2554 44.2664C51.5953 41.7941 51.2971 39.276 50.3892 36.9514C50.2815 36.6835 50.0748 36.4673 49.8119 36.3478C49.549 36.2283 49.2502 36.2147 48.9775 36.3097C48.7169 36.4172 48.5063 36.6187 48.3874 36.8743C48.2685 37.1299 48.2501 37.4208 48.3358 37.6893C49.0332 39.6756 49.2099 41.8074 48.8492 43.8814C48.4442 45.9011 47.5021 47.7742 46.1221 49.3035C43.9805 51.8841 41.0492 53.688 37.7804 54.4368C34.5135 55.0166 31.147 54.5566 28.1554 53.1214C26.4128 52.4306 24.8602 51.3336 23.627 49.9218C22.3937 48.5099 21.5154 46.824 21.065 45.0043C20.3119 41.1508 21.0948 37.1556 23.2467 33.8714C24.03 32.6619 25.018 31.5979 26.1663 30.7272C27.1267 29.8339 28.2064 29.078 29.3746 28.4814C30.5963 27.8973 31.9095 27.5283 33.2567 27.3906C34.6466 27.2206 36.0548 27.2748 37.4275 27.551Z" fill="#CDD4DD"/>
<path d="M31.2033 36.9835C31.0989 36.9131 30.9813 36.8647 30.8577 36.8411C30.734 36.8175 30.6068 36.8192 30.4838 36.8462C30.3608 36.8732 30.2446 36.9249 30.1422 36.9981C30.0398 37.0714 29.9533 37.1646 29.8879 37.2722C29.2733 37.9692 28.8059 38.7832 28.5137 39.6653C28.2215 40.5474 28.1106 41.4795 28.1875 42.4056C28.3122 43.4544 28.7354 44.4455 29.4067 45.261C30.059 46.0301 30.8833 46.6346 31.8129 47.0256C33.3473 47.6343 35.041 47.7133 36.6254 47.2502C38.1331 46.7753 39.427 45.7878 40.2829 44.4589C40.4701 44.2377 40.5618 43.9511 40.5377 43.6623C40.5136 43.3735 40.3758 43.1061 40.1546 42.9189C39.9334 42.7317 39.6468 42.6401 39.358 42.6641C39.0692 42.6882 38.8018 42.826 38.6146 43.0472C37.8987 43.7653 36.9594 44.218 35.9517 44.3306C35.0278 44.4152 34.102 44.1894 33.3208 43.6889C32.7743 43.4656 32.29 43.1134 31.9092 42.6622C31.6395 42.4069 31.4216 42.1018 31.2675 41.7639C30.882 40.6245 30.9628 39.379 31.4921 38.2989C31.5625 38.1945 31.6109 38.0769 31.6345 37.9532C31.6581 37.8295 31.6564 37.7024 31.6294 37.5794C31.6024 37.4564 31.5507 37.3402 31.4775 37.2377C31.4042 37.1353 31.311 37.0488 31.2033 36.9835Z" fill="#CDD4DD"/>
<path d="M71.822 10.964C71.478 10.6546 71.0568 10.444 70.6029 10.3544C70.0069 10.2701 69.4021 10.2701 68.8062 10.3544C68.4533 10.3544 66.9774 10.8677 65.9187 10.9961C65.9318 10.8895 65.9318 10.7818 65.9187 10.6752L65.662 7.46691C65.6576 6.81897 65.5823 6.17347 65.4374 5.54191C65.3535 5.26052 65.2136 4.99898 65.0262 4.77295C64.8387 4.54692 64.6076 4.36106 64.3466 4.22649C64.0025 4.07808 63.6252 4.02364 63.2532 4.06873C62.8812 4.11382 62.5278 4.25683 62.2291 4.48316C61.3652 5.27861 60.561 6.13647 59.8229 7.04983L55.3312 12.5682C55.1488 12.7691 54.9974 12.9962 54.882 13.2419C54.7505 13.556 54.6955 13.8969 54.7216 14.2365C54.7216 14.814 55.4274 18.2469 55.5558 19.2736C55.267 19.5623 54.3366 20.2682 53.727 20.7815C52.0266 22.1611 49.1712 24.3107 46.5404 26.6527C45.3212 27.7115 44.1983 28.8023 43.332 29.8611C42.4658 30.9198 40.7974 32.4919 40.1237 33.0694L35.7924 37.4969C35.6552 37.5695 35.5351 37.6705 35.4401 37.7932C35.345 37.9159 35.2773 38.0575 35.2413 38.2085C35.2054 38.3595 35.2021 38.5164 35.2316 38.6688C35.2612 38.8212 35.3229 38.9655 35.4127 39.0921C35.5025 39.2187 35.6182 39.3247 35.7522 39.403C35.8863 39.4813 36.0354 39.5301 36.1898 39.5462C36.3442 39.5622 36.5002 39.5451 36.6475 39.496C36.7947 39.4469 36.9298 39.367 37.0437 39.2615L41.9524 35.4757C42.6904 34.8982 44.0699 33.8715 45.6099 32.524C47.1499 31.1765 47.8879 30.5348 49.0429 29.3157C51.5133 26.8132 53.8233 24.054 55.267 22.4177C55.8766 21.7119 57.3845 20.6211 57.577 19.6586C57.577 19.6586 57.577 15.8407 57.4166 15.4877C57.3893 15.0604 57.3893 14.6317 57.4166 14.2044L58.6679 13.0173L61.8762 9.32774C61.8762 9.32774 62.1008 12.5361 62.2612 12.889C62.3755 13.1621 62.5386 13.4122 62.7424 13.6269C63.3894 14.11 64.1813 14.3589 64.9883 14.3327H66.6887C65.9187 15.199 65.0524 16.2577 64.1541 17.1882C63.5716 17.8553 62.8899 18.4288 62.1329 18.8886C61.8269 18.9609 61.5084 18.9609 61.2024 18.8886H59.6945C59.5378 18.8614 59.3771 18.8688 59.2236 18.9103C59.0701 18.9518 58.9275 19.0263 58.8058 19.1287C58.6841 19.2311 58.5863 19.3589 58.5192 19.5031C58.4521 19.6472 58.4173 19.8043 58.4173 19.9634C58.4173 20.1224 58.4521 20.2795 58.5192 20.4237C58.5863 20.5679 58.6841 20.6956 58.8058 20.798C58.9275 20.9004 59.0701 20.9749 59.2236 21.0164C59.3771 21.0579 59.5378 21.0653 59.6945 21.0382C60.4004 21.0382 60.6891 21.2307 61.6195 21.2307C62.1791 21.2487 62.7362 21.1504 63.2558 20.9419C64.0197 20.5478 64.7402 20.0747 65.4054 19.5302C66.7849 18.4073 68.1966 16.8994 69.3195 15.8727C69.4799 15.8727 70.5066 15.0386 71.1804 14.3969C71.6581 14.0319 72.0428 13.5592 72.3033 13.0173C72.4358 12.6659 72.4608 12.2831 72.3751 11.9174C72.2894 11.5518 72.0969 11.2199 71.822 10.964Z" fill="#CDD4DD"/>
</g>
<defs>
<clipPath id="clip0_864_1015">
<rect width="77" height="77" fill="white" transform="translate(0.5 0.184052)"/>
</clipPath>
</defs>
</svg>
